<svg width="153" height="32" viewBox="0 0 153 32" fill="none" xmlns="http://www.w3.org/2000/svg">
<path d="M28.2105 11.6974L26.3947 6.25L22.1579 10.1842L28.2105 11.6974Z" fill="#3B82F6"/>
<g filter="url(#filter0_d_42426_847)">
<path opacity="0.5" d="M4.00586 0.65538L9.92942 21.6792C9.95954 21.7746 10.08 21.8032 10.1503 21.7364L14.1161 17.9669L11.1443 7.43109C11.1141 7.33566 11.2045 7.24977 11.3049 7.2784L22.389 10.1032L26.3347 6.3527C26.405 6.2859 26.3748 6.17138 26.2744 6.14275L4.16649 0.502688C4.0661 0.483601 3.97574 0.56949 4.00586 0.65538Z" fill="#3B82F6"/>
<path opacity="0.5" d="M14.1163 17.9667L15.6424 23.4063C15.6725 23.5018 15.793 23.5304 15.8632 23.4636L28.1722 11.7731C28.2425 11.7063 28.2124 11.5918 28.112 11.5631L22.3892 10.103L14.1163 17.9667Z" fill="#3B82F6"/>
<path d="M11.1448 7.43092L14.1166 17.9667L22.3895 10.103L11.3054 7.27823C11.205 7.2496 11.1147 7.33549 11.1448 7.43092Z" fill="#3B82F6"/>
</g>
<path d="M54.6164 3.86133V16.6582H51.9797L46.8381 8.08008V16.6582H44.2014V3.86133H46.8381L51.9885 12.4482V3.86133H54.6164Z" fill="#E1E1E6"/>
<path d="M62.3771 14.3818V7.14844H64.9084V16.6582H62.5266L62.3771 14.3818ZM62.6584 12.4307L63.4055 12.4131C63.4055 13.0459 63.3322 13.6348 63.1857 14.1797C63.0392 14.7188 62.8195 15.1875 62.5266 15.5859C62.2336 15.9785 61.8644 16.2861 61.4191 16.5088C60.9738 16.7256 60.4494 16.834 59.8459 16.834C59.383 16.834 58.9553 16.7695 58.5627 16.6406C58.176 16.5059 57.842 16.2979 57.5607 16.0166C57.2853 15.7295 57.0685 15.3633 56.9103 14.918C56.758 14.4668 56.6818 13.9248 56.6818 13.292V7.14844H59.2131V13.3096C59.2131 13.5908 59.2453 13.8281 59.3098 14.0215C59.3801 14.2148 59.4767 14.373 59.5998 14.4961C59.7228 14.6191 59.8664 14.707 60.0305 14.7598C60.2004 14.8125 60.3879 14.8389 60.593 14.8389C61.1144 14.8389 61.5246 14.7334 61.8234 14.5225C62.1281 14.3115 62.342 14.0244 62.465 13.6611C62.5939 13.292 62.6584 12.8818 62.6584 12.4307Z" fill="#E1E1E6"/>
<path d="M69.3205 9.17871V16.6582H66.7892V7.14844H69.1623L69.3205 9.17871ZM68.9514 11.5693H68.2658C68.2658 10.8662 68.3566 10.2334 68.5383 9.6709C68.7199 9.10254 68.9748 8.61914 69.3029 8.2207C69.631 7.81641 70.0207 7.50879 70.4719 7.29785C70.9289 7.08105 71.4387 6.97266 72.0012 6.97266C72.4465 6.97266 72.8537 7.03711 73.2228 7.16602C73.592 7.29492 73.9084 7.5 74.1721 7.78125C74.4416 8.0625 74.6467 8.43457 74.7873 8.89746C74.9338 9.36035 75.007 9.92578 75.007 10.5938V16.6582H72.4582V10.585C72.4582 10.1631 72.3996 9.83496 72.2824 9.60059C72.1652 9.36621 71.9924 9.20215 71.7639 9.1084C71.5412 9.00879 71.2658 8.95898 70.9377 8.95898C70.5978 8.95898 70.3019 9.02637 70.05 9.16113C69.8039 9.2959 69.5988 9.4834 69.4348 9.72363C69.2766 9.95801 69.1564 10.2334 69.0744 10.5498C68.9924 10.8662 68.9514 11.2061 68.9514 11.5693Z" fill="#E1E1E6"/>
<path d="M81.3088 16.834C80.5705 16.834 79.9084 16.7168 79.3224 16.4824C78.7365 16.2422 78.2385 15.9111 77.8283 15.4893C77.424 15.0674 77.1135 14.5781 76.8967 14.0215C76.6799 13.459 76.5715 12.8613 76.5715 12.2285V11.877C76.5715 11.1562 76.674 10.4971 76.8791 9.89941C77.0842 9.30176 77.3771 8.7832 77.758 8.34375C78.1447 7.9043 78.6135 7.56738 79.1642 7.33301C79.715 7.09277 80.3361 6.97266 81.0275 6.97266C81.7014 6.97266 82.299 7.08398 82.8205 7.30664C83.342 7.5293 83.7785 7.8457 84.1301 8.25586C84.4875 8.66602 84.757 9.1582 84.9387 9.73242C85.1203 10.3008 85.2111 10.9336 85.2111 11.6309V12.6855H77.6525V10.998H82.7238V10.8047C82.7238 10.4531 82.6594 10.1396 82.5305 9.86426C82.4074 9.58301 82.2199 9.36035 81.968 9.19629C81.716 9.03223 81.3937 8.9502 81.0012 8.9502C80.6672 8.9502 80.3801 9.02344 80.1398 9.16992C79.8996 9.31641 79.7033 9.52148 79.551 9.78516C79.4045 10.0488 79.2932 10.3594 79.217 10.7168C79.1467 11.0684 79.1115 11.4551 79.1115 11.877V12.2285C79.1115 12.6094 79.1642 12.9609 79.2697 13.2832C79.381 13.6055 79.5363 13.8838 79.7355 14.1182C79.9406 14.3525 80.1867 14.5342 80.4738 14.6631C80.7668 14.792 81.0978 14.8564 81.467 14.8564C81.924 14.8564 82.3488 14.7686 82.7414 14.5928C83.1398 14.4111 83.4826 14.1387 83.7697 13.7754L85.0002 15.1113C84.801 15.3984 84.5285 15.6738 84.1828 15.9375C83.843 16.2012 83.4328 16.418 82.9523 16.5879C82.4719 16.752 81.924 16.834 81.3088 16.834Z" fill="#E1E1E6"/>
<path d="M91.7941 14.0303C91.7941 13.8486 91.7414 13.6846 91.6359 13.5381C91.5305 13.3916 91.3342 13.2568 91.0471 13.1338C90.7658 13.0049 90.3586 12.8877 89.8254 12.7822C89.3449 12.6768 88.8967 12.5449 88.4807 12.3867C88.0705 12.2227 87.7131 12.0264 87.4084 11.7979C87.1096 11.5693 86.8752 11.2998 86.7053 10.9893C86.5353 10.6729 86.4504 10.3125 86.4504 9.9082C86.4504 9.50977 86.5353 9.13477 86.7053 8.7832C86.881 8.43164 87.1301 8.12109 87.4523 7.85156C87.7805 7.57617 88.1789 7.3623 88.6476 7.20996C89.1223 7.05176 89.6555 6.97266 90.2473 6.97266C91.0734 6.97266 91.7824 7.10449 92.3742 7.36816C92.9719 7.63184 93.4289 7.99512 93.7453 8.45801C94.0676 8.91504 94.2287 9.43652 94.2287 10.0225H91.6974C91.6974 9.77637 91.6447 9.55664 91.5392 9.36328C91.4396 9.16406 91.2814 9.00879 91.0646 8.89746C90.8537 8.78027 90.5783 8.72168 90.2385 8.72168C89.9572 8.72168 89.7141 8.77148 89.509 8.87109C89.3039 8.96484 89.1457 9.09375 89.0344 9.25781C88.9289 9.41602 88.8762 9.5918 88.8762 9.78516C88.8762 9.93164 88.9055 10.0635 88.9641 10.1807C89.0285 10.292 89.131 10.3945 89.2717 10.4883C89.4123 10.582 89.5939 10.6699 89.8166 10.752C90.0451 10.8281 90.3264 10.8984 90.6603 10.9629C91.3459 11.1035 91.9582 11.2881 92.4973 11.5166C93.0363 11.7393 93.4641 12.0439 93.7805 12.4307C94.0969 12.8115 94.2551 13.3125 94.2551 13.9336C94.2551 14.3555 94.1613 14.7422 93.9738 15.0938C93.7863 15.4453 93.5168 15.7529 93.1652 16.0166C92.8137 16.2744 92.3918 16.4766 91.8996 16.623C91.4133 16.7637 90.8654 16.834 90.256 16.834C89.3713 16.834 88.6213 16.6758 88.006 16.3594C87.3967 16.043 86.9338 15.6416 86.6174 15.1553C86.3068 14.6631 86.1516 14.1592 86.1516 13.6436H88.551C88.5627 13.9893 88.6506 14.2676 88.8146 14.4785C88.9846 14.6895 89.1984 14.8418 89.4562 14.9355C89.7199 15.0293 90.0041 15.0762 90.3088 15.0762C90.6369 15.0762 90.9094 15.0322 91.1262 14.9443C91.343 14.8506 91.507 14.7275 91.6183 14.5752C91.7355 14.417 91.7941 14.2354 91.7941 14.0303Z" fill="#E1E1E6"/>
<path d="M107.201 13.3096C107.201 13.0811 107.166 12.876 107.096 12.6943C107.031 12.5068 106.908 12.3369 106.727 12.1846C106.545 12.0264 106.29 11.8711 105.962 11.7188C105.634 11.5664 105.209 11.4082 104.688 11.2441C104.108 11.0566 103.557 10.8457 103.035 10.6113C102.52 10.377 102.063 10.1045 101.664 9.79395C101.272 9.47754 100.961 9.11133 100.733 8.69531C100.51 8.2793 100.399 7.7959 100.399 7.24512C100.399 6.71191 100.516 6.22852 100.75 5.79492C100.985 5.35547 101.313 4.98047 101.735 4.66992C102.156 4.35352 102.654 4.11035 103.229 3.94043C103.809 3.77051 104.445 3.68555 105.136 3.68555C106.079 3.68555 106.903 3.85547 107.606 4.19531C108.309 4.53516 108.854 5.00098 109.24 5.59277C109.633 6.18457 109.829 6.86133 109.829 7.62305H107.21C107.21 7.24805 107.131 6.91992 106.973 6.63867C106.82 6.35156 106.586 6.12598 106.27 5.96191C105.959 5.79785 105.567 5.71582 105.092 5.71582C104.635 5.71582 104.254 5.78613 103.949 5.92676C103.645 6.06152 103.416 6.24609 103.264 6.48047C103.112 6.70898 103.035 6.9668 103.035 7.25391C103.035 7.4707 103.088 7.66699 103.194 7.84277C103.305 8.01855 103.469 8.18262 103.686 8.33496C103.903 8.4873 104.169 8.63086 104.486 8.76562C104.802 8.90039 105.168 9.03223 105.584 9.16113C106.281 9.37207 106.894 9.60938 107.421 9.87305C107.954 10.1367 108.4 10.4326 108.757 10.7607C109.114 11.0889 109.384 11.4609 109.566 11.877C109.747 12.293 109.838 12.7646 109.838 13.292C109.838 13.8486 109.73 14.3467 109.513 14.7861C109.296 15.2256 108.983 15.5977 108.572 15.9023C108.162 16.207 107.673 16.4385 107.105 16.5967C106.536 16.7549 105.901 16.834 105.197 16.834C104.565 16.834 103.941 16.752 103.325 16.5879C102.71 16.418 102.151 16.1631 101.647 15.8232C101.149 15.4834 100.75 15.0498 100.451 14.5225C100.153 13.9951 100.003 13.3711 100.003 12.6504H102.649C102.649 13.0488 102.71 13.3857 102.833 13.6611C102.956 13.9365 103.129 14.1592 103.352 14.3291C103.58 14.499 103.85 14.6221 104.16 14.6982C104.477 14.7744 104.822 14.8125 105.197 14.8125C105.654 14.8125 106.029 14.748 106.322 14.6191C106.621 14.4902 106.841 14.3115 106.982 14.083C107.128 13.8545 107.201 13.5967 107.201 13.3096Z" fill="#E1E1E6"/>
<path d="M114.004 8.97656V20.3145H111.473V7.14844H113.82L114.004 8.97656ZM120.025 11.7979V11.9824C120.025 12.6738 119.943 13.3154 119.779 13.9072C119.62 14.499 119.386 15.0146 119.075 15.4541C118.765 15.8877 118.378 16.2275 117.915 16.4736C117.458 16.7139 116.931 16.834 116.333 16.834C115.753 16.834 115.249 16.7168 114.821 16.4824C114.394 16.248 114.033 15.9199 113.74 15.498C113.453 15.0703 113.222 14.5752 113.046 14.0127C112.87 13.4502 112.736 12.8467 112.642 12.2021V11.7188C112.736 11.0273 112.87 10.3945 113.046 9.82031C113.222 9.24023 113.453 8.73926 113.74 8.31738C114.033 7.88965 114.391 7.55859 114.813 7.32422C115.24 7.08984 115.741 6.97266 116.316 6.97266C116.919 6.97266 117.449 7.08691 117.906 7.31543C118.369 7.54395 118.756 7.87207 119.067 8.2998C119.383 8.72754 119.62 9.2373 119.779 9.8291C119.943 10.4209 120.025 11.0771 120.025 11.7979ZM117.485 11.9824V11.7979C117.485 11.3936 117.449 11.0215 117.379 10.6816C117.315 10.3359 117.209 10.0342 117.063 9.77637C116.922 9.51855 116.735 9.31934 116.5 9.17871C116.272 9.03223 115.993 8.95898 115.665 8.95898C115.32 8.95898 115.024 9.01465 114.778 9.12598C114.537 9.2373 114.341 9.39844 114.189 9.60938C114.036 9.82031 113.922 10.0723 113.846 10.3652C113.77 10.6582 113.723 10.9893 113.705 11.3584V12.5801C113.735 13.0137 113.817 13.4033 113.951 13.749C114.086 14.0889 114.294 14.3584 114.575 14.5576C114.857 14.7568 115.226 14.8564 115.683 14.8564C116.017 14.8564 116.298 14.7832 116.527 14.6367C116.755 14.4844 116.94 14.2764 117.08 14.0127C117.227 13.749 117.329 13.4443 117.388 13.0986C117.452 12.7529 117.485 12.3809 117.485 11.9824Z" fill="#E1E1E6"/>
<path d="M121.194 12V11.8154C121.194 11.1182 121.293 10.4766 121.492 9.89062C121.692 9.29883 121.982 8.78613 122.362 8.35254C122.743 7.91895 123.212 7.58203 123.769 7.3418C124.325 7.0957 124.964 6.97266 125.685 6.97266C126.405 6.97266 127.047 7.0957 127.61 7.3418C128.172 7.58203 128.644 7.91895 129.025 8.35254C129.411 8.78613 129.704 9.29883 129.904 9.89062C130.103 10.4766 130.202 11.1182 130.202 11.8154V12C130.202 12.6914 130.103 13.333 129.904 13.9248C129.704 14.5107 129.411 15.0234 129.025 15.4629C128.644 15.8965 128.175 16.2334 127.618 16.4736C127.062 16.7139 126.423 16.834 125.702 16.834C124.982 16.834 124.34 16.7139 123.778 16.4736C123.221 16.2334 122.749 15.8965 122.362 15.4629C121.982 15.0234 121.692 14.5107 121.492 13.9248C121.293 13.333 121.194 12.6914 121.194 12ZM123.725 11.8154V12C123.725 12.3984 123.76 12.7705 123.83 13.1162C123.901 13.4619 124.012 13.7666 124.164 14.0303C124.322 14.2881 124.528 14.4902 124.779 14.6367C125.031 14.7832 125.339 14.8564 125.702 14.8564C126.054 14.8564 126.356 14.7832 126.608 14.6367C126.86 14.4902 127.062 14.2881 127.214 14.0303C127.366 13.7666 127.478 13.4619 127.548 13.1162C127.624 12.7705 127.662 12.3984 127.662 12V11.8154C127.662 11.4287 127.624 11.0654 127.548 10.7256C127.478 10.3799 127.363 10.0752 127.205 9.81152C127.053 9.54199 126.851 9.33105 126.599 9.17871C126.347 9.02637 126.042 8.9502 125.685 8.9502C125.327 8.9502 125.023 9.02637 124.771 9.17871C124.525 9.33105 124.322 9.54199 124.164 9.81152C124.012 10.0752 123.901 10.3799 123.83 10.7256C123.76 11.0654 123.725 11.4287 123.725 11.8154Z" fill="#E1E1E6"/>
<path d="M134.289 9.22266V16.6582H131.758V7.14844H134.14L134.289 9.22266ZM137.154 7.08691L137.111 9.43359C136.987 9.41602 136.838 9.40137 136.662 9.38965C136.492 9.37207 136.337 9.36328 136.196 9.36328C135.839 9.36328 135.529 9.41016 135.265 9.50391C135.007 9.5918 134.79 9.72363 134.614 9.89941C134.445 10.0752 134.316 10.2891 134.228 10.541C134.146 10.793 134.099 11.0801 134.087 11.4023L133.577 11.2441C133.577 10.6289 133.639 10.0635 133.762 9.54785C133.885 9.02637 134.064 8.57227 134.298 8.18555C134.538 7.79883 134.831 7.5 135.177 7.28906C135.523 7.07812 135.918 6.97266 136.363 6.97266C136.504 6.97266 136.648 6.98438 136.794 7.00781C136.941 7.02539 137.061 7.05176 137.154 7.08691Z" fill="#E1E1E6"/>
<path d="M143.447 7.14844V8.94141H137.91V7.14844H143.447ZM139.281 4.80176H141.813V13.793C141.813 14.0684 141.848 14.2793 141.918 14.4258C141.994 14.5723 142.106 14.6748 142.252 14.7334C142.399 14.7861 142.583 14.8125 142.806 14.8125C142.964 14.8125 143.105 14.8066 143.228 14.7949C143.357 14.7773 143.465 14.7598 143.553 14.7422L143.562 16.6055C143.345 16.6758 143.111 16.7314 142.859 16.7725C142.607 16.8135 142.328 16.834 142.024 16.834C141.467 16.834 140.981 16.7432 140.565 16.5615C140.154 16.374 139.838 16.0752 139.615 15.665C139.393 15.2549 139.281 14.7158 139.281 14.0479V4.80176Z" fill="#E1E1E6"/>
<path d="M150.03 14.0303C150.03 13.8486 149.978 13.6846 149.872 13.5381C149.767 13.3916 149.57 13.2568 149.283 13.1338C149.002 13.0049 148.595 12.8877 148.062 12.7822C147.581 12.6768 147.133 12.5449 146.717 12.3867C146.307 12.2227 145.949 12.0264 145.645 11.7979C145.346 11.5693 145.112 11.2998 144.942 10.9893C144.772 10.6729 144.687 10.3125 144.687 9.9082C144.687 9.50977 144.772 9.13477 144.942 8.7832C145.117 8.43164 145.366 8.12109 145.689 7.85156C146.017 7.57617 146.415 7.3623 146.884 7.20996C147.359 7.05176 147.892 6.97266 148.484 6.97266C149.31 6.97266 150.019 7.10449 150.611 7.36816C151.208 7.63184 151.665 7.99512 151.982 8.45801C152.304 8.91504 152.465 9.43652 152.465 10.0225H149.934C149.934 9.77637 149.881 9.55664 149.776 9.36328C149.676 9.16406 149.518 9.00879 149.301 8.89746C149.09 8.78027 148.815 8.72168 148.475 8.72168C148.194 8.72168 147.95 8.77148 147.745 8.87109C147.54 8.96484 147.382 9.09375 147.271 9.25781C147.165 9.41602 147.112 9.5918 147.112 9.78516C147.112 9.93164 147.142 10.0635 147.2 10.1807C147.265 10.292 147.367 10.3945 147.508 10.4883C147.649 10.582 147.83 10.6699 148.053 10.752C148.281 10.8281 148.563 10.8984 148.897 10.9629C149.582 11.1035 150.195 11.2881 150.734 11.5166C151.273 11.7393 151.7 12.0439 152.017 12.4307C152.333 12.8115 152.491 13.3125 152.491 13.9336C152.491 14.3555 152.398 14.7422 152.21 15.0938C152.023 15.4453 151.753 15.7529 151.402 16.0166C151.05 16.2744 150.628 16.4766 150.136 16.623C149.65 16.7637 149.102 16.834 148.492 16.834C147.608 16.834 146.858 16.6758 146.242 16.3594C145.633 16.043 145.17 15.6416 144.854 15.1553C144.543 14.6631 144.388 14.1592 144.388 13.6436H146.787C146.799 13.9893 146.887 14.2676 147.051 14.4785C147.221 14.6895 147.435 14.8418 147.693 14.9355C147.956 15.0293 148.24 15.0762 148.545 15.0762C148.873 15.0762 149.146 15.0322 149.362 14.9443C149.579 14.8506 149.743 14.7275 149.855 14.5752C149.972 14.417 150.03 14.2354 150.03 14.0303Z" fill="#E1E1E6"/>
<defs>
<filter id="filter0_d_42426_847" x="0" y="0.5" width="32.2105" height="31" filterUnits="userSpaceOnUse" color-interpolation-filters="sRGB">
<feFlood flood-opacity="0" result="BackgroundImageFix"/>
<feColorMatrix in="SourceAlpha" type="matrix" values="0 0 0 0 0 0 0 0 0 0 0 0 0 0 0 0 0 0 127 0" result="hardAlpha"/>
<feOffset dy="4"/>
<feGaussianBlur stdDeviation="2"/>
<feComposite in2="hardAlpha" operator="out"/>
<feColorMatrix type="matrix" values="0 0 0 0 0 0 0 0 0 0 0 0 0 0 0 0 0 0 0.25 0"/>
<feBlend mode="normal" in2="BackgroundImageFix" result="effect1_dropShadow_42426_847"/>
<feBlend mode="normal" in="SourceGraphic" in2="effect1_dropShadow_42426_847" result="shape"/>
</filter>
</defs>
</svg>
